<?xml version="1.0" encoding="utf-8"?>
<!-- Generator: Adobe Illustrator 25.0.1, SVG Export Plug-In . SVG Version: 6.00 Build 0)  -->
<svg version="1.1" id="Layer_1" xmlns="http://www.w3.org/2000/svg" xmlns:xlink="http://www.w3.org/1999/xlink" x="0px" y="0px"
	 viewBox="0 0 212 49.6" style="enable-background:new 0 0 212 49.6;" xml:space="preserve">
<style type="text/css">
	.st0{fill:#F4DFBA;}
</style>
<g>
	<g>
		<circle class="st0" cx="5.2" cy="44.4" r="5.2"/>
		<circle class="st0" cx="20.7" cy="44.4" r="5.2"/>
		<circle class="st0" cx="36.2" cy="44.4" r="5.2"/>
		<path class="st0" d="M51.7,39.1c2.9,0,5.2,2.3,5.2,5.2s-2.3,5.2-5.2,5.2s-5.2-2.3-5.2-5.2S48.9,39.1,51.7,39.1z"/>
		<circle class="st0" cx="67.2" cy="44.4" r="5.2"/>
		<circle class="st0" cx="82.8" cy="44.4" r="5.2"/>
		<path class="st0" d="M113.8,39.1c2.9,0,5.2,2.3,5.2,5.2s-2.3,5.2-5.2,5.2c-2.9,0-5.2-2.3-5.2-5.2S110.9,39.1,113.8,39.1z"/>
		<path class="st0" d="M98.3,39.1c2.9,0,5.2,2.3,5.2,5.2s-2.3,5.2-5.2,5.2c-2.9,0-5.2-2.3-5.2-5.2S95.4,39.1,98.3,39.1z"/>
		<path class="st0" d="M129.3,39.1c2.9,0,5.2,2.3,5.2,5.2s-2.3,5.2-5.2,5.2c-2.9,0-5.2-2.3-5.2-5.2
			C124.1,41.5,126.4,39.1,129.3,39.1z"/>
		<circle class="st0" cx="144.8" cy="44.4" r="5.2"/>
		<circle class="st0" cx="160.3" cy="44.4" r="5.2"/>
		<circle class="st0" cx="175.8" cy="44.4" r="5.2"/>
		<circle class="st0" cx="191.3" cy="44.4" r="5.2"/>
		<circle class="st0" cx="206.8" cy="44.4" r="5.2"/>
	</g>
	<g>
		<path class="st0" d="M5.2,19.6c2.9,0,5.2,2.3,5.2,5.2S8.1,30,5.2,30S0,27.7,0,24.8S2.3,19.6,5.2,19.6z"/>
		<path class="st0" d="M20.7,19.6c2.9,0,5.2,2.3,5.2,5.2S23.6,30,20.7,30s-5.2-2.3-5.2-5.2C15.5,21.9,17.8,19.6,20.7,19.6z"/>
		<path class="st0" d="M36.2,19.6c2.9,0,5.2,2.3,5.2,5.2S39.1,30,36.2,30S31,27.7,31,24.8S33.4,19.6,36.2,19.6z"/>
		<path class="st0" d="M51.7,19.6c2.9,0,5.2,2.3,5.2,5.2S54.6,30,51.7,30s-5.2-2.3-5.2-5.2S48.9,19.6,51.7,19.6z"/>
		<path class="st0" d="M67.2,19.6c2.9,0,5.2,2.3,5.2,5.2S70.1,30,67.2,30S62,27.7,62,24.8S64.4,19.6,67.2,19.6z"/>
		<path class="st0" d="M82.8,19.6c2.9,0,5.2,2.3,5.2,5.2S85.7,30,82.8,30c-2.9,0-5.2-2.3-5.2-5.2C77.5,21.9,79.9,19.6,82.8,19.6z"/>
		<path class="st0" d="M113.8,19.6c2.9,0,5.2,2.3,5.2,5.2s-2.3,5.2-5.2,5.2c-2.9,0-5.2-2.3-5.2-5.2
			C108.6,21.9,110.9,19.6,113.8,19.6z"/>
		<path class="st0" d="M98.3,19.6c2.9,0,5.2,2.3,5.2,5.2s-2.3,5.2-5.2,5.2c-2.9,0-5.2-2.3-5.2-5.2C93,21.9,95.4,19.6,98.3,19.6z"/>
		<path class="st0" d="M129.3,19.6c2.9,0,5.2,2.3,5.2,5.2s-2.3,5.2-5.2,5.2c-2.9,0-5.2-2.3-5.2-5.2
			C124.1,21.9,126.4,19.6,129.3,19.6z"/>
		<path class="st0" d="M144.8,19.6c2.9,0,5.2,2.3,5.2,5.2s-2.3,5.2-5.2,5.2s-5.2-2.3-5.2-5.2S141.9,19.6,144.8,19.6z"/>
		<path class="st0" d="M160.3,19.6c2.9,0,5.2,2.3,5.2,5.2s-2.3,5.2-5.2,5.2s-5.2-2.3-5.2-5.2S157.4,19.6,160.3,19.6z"/>
		<path class="st0" d="M175.8,19.6c2.9,0,5.2,2.3,5.2,5.2s-2.3,5.2-5.2,5.2s-5.2-2.3-5.2-5.2S172.9,19.6,175.8,19.6z"/>
		<path class="st0" d="M191.3,19.6c2.9,0,5.2,2.3,5.2,5.2s-2.3,5.2-5.2,5.2s-5.2-2.3-5.2-5.2S188.4,19.6,191.3,19.6z"/>
		<path class="st0" d="M206.8,19.6c2.9,0,5.2,2.3,5.2,5.2s-2.3,5.2-5.2,5.2s-5.2-2.3-5.2-5.2S203.9,19.6,206.8,19.6z"/>
	</g>
	<g>
		<circle class="st0" cx="5.2" cy="5.2" r="5.2"/>
		<circle class="st0" cx="20.7" cy="5.2" r="5.2"/>
		<circle class="st0" cx="36.2" cy="5.2" r="5.2"/>
		<circle class="st0" cx="51.7" cy="5.2" r="5.2"/>
		<circle class="st0" cx="67.2" cy="5.2" r="5.2"/>
		<circle class="st0" cx="82.8" cy="5.2" r="5.2"/>
		<path class="st0" d="M113.8,0c2.9,0,5.2,2.3,5.2,5.2s-2.3,5.2-5.2,5.2c-2.9,0-5.2-2.3-5.2-5.2C108.6,2.3,110.9,0,113.8,0z"/>
		<path class="st0" d="M98.3,0c2.9,0,5.2,2.3,5.2,5.2s-2.3,5.2-5.2,5.2c-2.9,0-5.2-2.3-5.2-5.2C93,2.3,95.4,0,98.3,0z"/>
		<circle class="st0" cx="129.3" cy="5.2" r="5.2"/>
		<circle class="st0" cx="144.8" cy="5.2" r="5.2"/>
		<circle class="st0" cx="160.3" cy="5.2" r="5.2"/>
		<circle class="st0" cx="175.8" cy="5.2" r="5.2"/>
		<circle class="st0" cx="191.3" cy="5.2" r="5.2"/>
		<circle class="st0" cx="206.8" cy="5.2" r="5.2"/>
	</g>
</g>
</svg>
